<?xml version="1.0" standalone="no"?><!DOCTYPE svg PUBLIC "-//W3C//DTD SVG 1.1//EN" "http://www.w3.org/Graphics/SVG/1.1/DTD/svg11.dtd"><svg t="1564411406169" class="icon" viewBox="0 0 1024 1024" version="1.1" xmlns="http://www.w3.org/2000/svg" p-id="19400" xmlns:xlink="http://www.w3.org/1999/xlink" width="200" height="200"><defs><style type="text/css"></style></defs><path d="M512 819.2a307.2 307.2 0 1 0 0-614.4 307.2 307.2 0 0 0 0 614.4z m0 68.266667C304.64 887.466667 136.533333 719.36 136.533333 512S304.64 136.533333 512 136.533333s375.466667 168.106667 375.466667 375.466667-168.106667 375.466667-375.466667 375.466667z m-34.133333-409.6h68.266666v238.933333h-68.266666v-238.933333z m85.333333-102.4a51.2 51.2 0 1 1-102.434133-0.034134A51.2 51.2 0 0 1 563.2 375.466667z" p-id="19401" fill="#2b90d9"></path></svg>