<?xml version="1.0" standalone="no"?><!DOCTYPE svg PUBLIC "-//W3C//DTD SVG 1.1//EN" "http://www.w3.org/Graphics/SVG/1.1/DTD/svg11.dtd"><svg t="1564385215876" class="icon" viewBox="0 0 1024 1024" version="1.1" xmlns="http://www.w3.org/2000/svg" p-id="17493" data-spm-anchor-id="a313x.7781069.0.i17" xmlns:xlink="http://www.w3.org/1999/xlink" width="200" height="200"><defs><style type="text/css"></style></defs><path d="M624.9 383.1c-13.6-11-35-16.5-64.4-16.5h-98v137.5h98c29.7 0 51.3-5.5 64.9-16.5 13.6-11.4 20.3-29 20.3-52.8 0.1-24.4-6.9-41.8-20.8-51.7z" p-id="17494" fill="#2b90d9"></path><path d="M512.1 69.5c-244.2 0-442.2 198-442.2 442.2C69.9 756 267.9 954 512.1 954s442.2-198 442.2-442.2c0.1-244.3-197.9-442.3-442.2-442.3z m52.2 485.7H462.5v152.9h-60V315.3h162.9c93.6 0 140.3 39.9 140.3 119.4 0 80.4-47.1 120.5-141.4 120.5z" p-id="17495" data-spm-anchor-id="a313x.7781069.0.i16" class="" fill="#2b90d9"></path></svg>